<?xml version="1.0" encoding="utf-8"?>
<svg id="Layer_1" data-name="Layer 1" xmlns="http://www.w3.org/2000/svg" viewBox="0 0 1666 711.51">
  <defs>
    <style>
      .cls-1 {
        font-family: Raleway-Medium, Raleway;
        font-weight: 500;
      }

      .cls-2, .cls-3 {
        fill: #062853;
      }

      .cls-3 {
        font-size: 207.58px;
      }

      .cls-4 {
        fill: #059bfb;
      }

      .cls-5 {
        fill: #fefefe;
      }

      .cls-6, .cls-7 {
        font-family: Raleway-Bold, Raleway;
        font-weight: 700;
      }

      .cls-7 {
        letter-spacing: -.01em;
      }

      .cls-8 {
        fill: #009bff;
      }
    </style>
  </defs>
  <path class="cls-4" d="M 241.053 75.19 C 256.634 100.752 259.112 140.479 248.162 170.89 C 242.786 185.795 232.629 195.529 238.377 215.658 C 247.344 247.087 286.361 236.392 300.841 219.602 C 306.725 212.772 308.583 204.434 317.464 203.132 C 339.685 199.869 348.232 245.37 329.343 260.237 C 317.773 269.33 309.004 257.047 297.509 255.273 C 285.681 253.446 261.131 255.766 260.622 280.573 C 260.115 305.399 285.767 303.946 296.667 302.702 C 308.249 301.381 321.242 291.704 329.466 311.832 C 341.729 341.846 318.74 373.709 300.073 352.392 C 291.54 342.657 285.074 331.62 275.337 322.341 C 227.018 276.271 163.513 280.856 118.228 333.282 C 112.282 340.167 103.525 355.731 96.837 358.333 C 75.235 366.748 61.783 324.963 78.938 305.021 C 89.008 293.306 96.75 301.607 107.638 302.777 C 117.559 303.853 140.239 305.285 142.889 285.798 C 147.386 252.766 113.026 252.596 99.611 257.218 C 89.901 260.558 84.326 269.423 73.811 259.198 C 59.169 244.974 62.266 208.944 79.756 203.812 C 95.896 199.076 97.456 215.507 108.467 225.034 C 123.047 237.673 164.07 245.467 166.746 209.64 C 168.406 187.341 157.877 180.116 153.059 161.252 C 131.196 75.604 201.998 11.067 241.065 75.19 L 241.053 75.19 Z M 174.97 137.065 C 159.661 141.819 163.154 179.437 179.368 177.078 C 197.303 174.476 194.02 131.163 174.97 137.065 Z M 235.392 170.89 C 246.935 153.215 229.656 124.031 216.899 141.934 C 204.103 159.892 222.596 190.491 235.392 170.89 Z" style=""/>
  <path class="cls-4" d="M 197.724 313.247 C 227.612 310.078 255.222 335.583 272.972 370.653 C 278.447 381.482 288.084 402.347 287.725 415.929 C 286.795 451.283 250.54 454.509 248.001 418.89 C 246.366 395.838 257.316 387.367 246.292 359.429 C 224.504 304.193 149.058 324.416 154.545 392.744 C 155.697 407.046 161.16 411.308 155.771 428.116 C 145.256 460.905 108.443 440.776 120.606 398.931 C 133.327 355.146 165.841 316.626 197.737 313.229 L 197.724 313.247 Z" style=""/>
  <path class="cls-4" d="M 287.439 109.674 C 313.723 103.581 318.678 163.459 295.49 169.59 C 266.742 177.193 262.195 115.523 287.439 109.674 Z" style=""/>
  <path class="cls-4" d="M 109.768 109.655 C 125.164 105.713 137.501 128.426 132.026 150.858 C 124.186 183.041 89.715 174.287 94.012 131.765 C 94.942 122.523 103.835 111.165 109.768 109.655 Z" style=""/>
  <path class="cls-4" d="M 198.604 363.675 C 225.433 356.788 230.561 419.422 204.896 423.778 C 177.869 428.362 174.524 369.862 198.604 363.675 Z" style=""/>
  <path class="cls-4" d="M 170.276 428.588 C 189.784 424.288 192.039 474.109 169.149 468.582 C 155.437 465.281 155.994 431.737 170.276 428.588 Z" style=""/>
  <path class="cls-4" d="M 241.053 463.848 C 240.421 464.827 237.46 467.677 236.692 467.997 C 217.245 476.089 212.056 436.964 227.452 429.363 C 240.817 422.759 250.936 448.623 241.053 463.848 Z" style=""/>
  <path class="cls-5" d="M 174.97 137.065 C 194.02 131.163 197.303 174.458 179.368 177.078 C 163.154 179.437 159.661 141.819 174.97 137.065 Z" style=""/>
  <path class="cls-5" d="M 235.392 170.89 C 222.596 190.491 204.103 159.892 216.899 141.934 C 229.656 124.031 246.935 153.215 235.392 170.89 Z" style=""/>
  <text class="cls-3" style="white-space: pre;" x="455.262" y="478.385" transform="matrix(1.238644, 0, 0, 1.886509, -198.520511, -501.582771)"><tspan class="cls-6" x="455.262" y="478.385" style="font-size: 207.6px; word-spacing: 0px;">Oc</tspan><tspan class="cls-7" x="729.262" y="478.385" style="font-size: 207.6px; word-spacing: 0px; letter-spacing: -2.08px;">t</tspan><tspan class="cls-6" x="806.272" y="478.385" style="font-size: 207.6px; word-spacing: 0px;">o</tspan><tspan class="cls-1" x="932.062" y="478.385" style="font-size: 207.6px; word-spacing: 0px;">Mind</tspan></text>
</svg>