<?xml version="1.0" encoding="UTF-8"?>
<svg id="Layer_1" data-name="Layer 1" xmlns="http://www.w3.org/2000/svg" viewBox="0 0 1666 711.51">
  <defs>
    <style>
      .cls-1 {
        font-family: Raleway-Medium, Raleway;
        font-weight: 500;
      }

      .cls-2, .cls-3 {
        fill: #062853;
      }

      .cls-3 {
        font-size: 207.58px;
      }

      .cls-4 {
        fill: #059bfb;
      }

      .cls-5 {
        fill: #fefefe;
      }

      .cls-6, .cls-7 {
        font-family: Raleway-Bold, Raleway;
        font-weight: 700;
      }

      .cls-7 {
        letter-spacing: -.01em;
      }

      .cls-8 {
        fill: #009bff;
      }
    </style>
  </defs>
  <path class="cls-4" d="M606.62,387.65c12.58,13.55,14.58,34.61,5.74,50.73-4.34,7.9-12.54,13.06-7.9,23.73,7.24,16.66,38.74,10.99,50.43,2.09,4.75-3.62,6.25-8.04,13.42-8.73,17.94-1.73,24.84,22.39,9.59,30.27-9.34,4.82-16.42-1.69-25.7-2.63-9.55-.97-29.37.26-29.78,13.41-.41,13.16,20.3,12.39,29.1,11.73,9.35-.7,19.84-5.83,26.48,4.84,9.9,15.91-8.66,32.8-23.73,21.5-6.89-5.16-12.11-11.01-19.97-15.93-39.01-24.42-90.28-21.99-126.84,5.8-4.8,3.65-11.87,11.9-17.27,13.28-17.44,4.46-28.3-17.69-14.45-28.26,8.13-6.21,14.38-1.81,23.17-1.19,8.01.57,26.32,1.33,28.46-9,3.63-17.51-24.11-17.6-34.94-15.15-7.84,1.77-12.34,6.47-20.83,1.05-11.82-7.54-9.32-26.64,4.8-29.36,13.03-2.51,14.29,6.2,23.18,11.25,11.77,6.7,44.89,10.83,47.05-8.16,1.34-11.82-7.16-15.65-11.05-25.65-17.65-45.4,39.51-79.61,71.05-45.62ZM553.27,420.45c-12.36,2.52-9.54,22.46,3.55,21.21,14.48-1.38,11.83-24.34-3.55-21.21ZM602.05,438.38c9.32-9.37-4.63-24.84-14.93-15.35-10.33,9.52,4.6,25.74,14.93,15.35Z"/>
  <path class="cls-4" d="M571.64,513.84c24.13-1.68,46.42,11.84,60.75,30.43,4.42,5.74,12.2,16.8,11.91,24-.75,18.74-30.02,20.45-32.07,1.57-1.32-12.22,7.52-16.71-1.38-31.52-17.59-29.28-78.5-18.56-74.07,17.66.93,7.58,5.34,9.84.99,18.75-8.49,17.38-38.21,6.71-28.39-15.47,10.27-23.21,36.52-43.63,62.27-45.43Z"/>
  <path class="cls-4" d="M644.07,405.93c21.22-3.23,25.22,28.51,6.5,31.76-23.21,4.03-26.88-28.66-6.5-31.76Z"/>
  <path class="cls-4" d="M500.63,405.92c12.43-2.09,22.39,9.95,17.97,21.84-6.33,17.06-34.16,12.42-30.69-10.12.75-4.9,7.93-10.92,12.72-11.72Z"/>
  <path class="cls-4" d="M572.35,540.57c21.66-3.65,25.8,29.55,5.08,31.86-21.82,2.43-24.52-28.58-5.08-31.86Z"/>
  <path class="cls-4" d="M549.48,574.98c15.75-2.28,17.57,24.13-.91,21.2-11.07-1.75-10.62-19.53.91-21.2Z"/>
  <path class="cls-4" d="M606.62,593.67c-.51.52-2.9,2.03-3.52,2.2-15.7,4.29-19.89-16.45-7.46-20.48,10.79-3.5,18.96,10.21,10.98,18.28Z"/>
  <path class="cls-5" d="M553.27,420.45c15.38-3.13,18.03,19.82,3.55,21.21-13.09,1.25-15.91-18.69-3.55-21.21Z"/>
  <path class="cls-5" d="M602.05,438.38c-10.33,10.39-25.26-5.83-14.93-15.35,10.3-9.49,24.25,5.98,14.93,15.35Z"/>
  <rect class="cls-8" x="52.5" width="161" height="112"/>
  <rect class="cls-2" y="296" width="161" height="112"/>
  <text class="cls-3" transform="translate(707 560.3)"><tspan class="cls-6" x="0" y="0">Oc</tspan><tspan class="cls-7" x="274" y="0">t</tspan><tspan class="cls-6" x="351.01" y="0">o</tspan><tspan class="cls-1" x="476.8" y="0">Mind</tspan></text>
</svg>